<?xml version="1.0" encoding="utf-8"?>
<!-- Generator: Adobe Illustrator 25.4.1, SVG Export Plug-In . SVG Version: 6.00 Build 0)  -->
<svg version="1.1" id="Layer_1" xmlns="http://www.w3.org/2000/svg" xmlns:xlink="http://www.w3.org/1999/xlink" x="0px" y="0px"
	 viewBox="0 0 202 36" style="enable-background:new 0 0 202 36;" xml:space="preserve">
<style type="text/css">
	.st0{fill:#152172;}
	.st1{fill:#FFFFFF;}
</style>
<path class="st0" d="M3.8,0h27.7c2.1,0,3.8,1.7,3.8,3.8v28.2c0,2.2-1.7,3.8-3.8,3.8H3.8c-2.1,0-3.8-1.7-3.8-3.8V3.8
	C0,1.7,1.7,0,3.8,0z"/>
<path class="st0" d="M41.6,0h27.7C71.4,0,73,1.7,73,3.8v28.2c0,2.2-1.7,3.8-3.8,3.8H41.6c-2.1,0-3.8-1.7-3.8-3.8V3.8
	C37.8,1.7,39.5,0,41.6,0z"/>
<path class="st0" d="M79.3,0H107c2.1,0,3.8,1.7,3.8,3.8v28.2c0,2.2-1.7,3.8-3.8,3.8H79.3c-2.1,0-3.8-1.7-3.8-3.8V3.8
	C75.5,1.7,77.2,0,79.3,0z"/>
<path class="st1" d="M58.4,8.9l5.7,18.9h-2.9c-0.4,0-0.6-0.2-0.7-0.6l-1.2-3.9h-7.6l-1.2,3.9c-0.1,0.4-0.5,0.6-0.7,0.6h-2.9
	l5.8-18.9c0.2-0.5,0.6-0.8,1.1-0.8h3.7C57.8,8.2,58.2,8.4,58.4,8.9z M58.4,20.3l-2.6-8.6c-0.1-0.4-0.6-0.4-0.7,0l-2.6,8.6H58.4z"/>
<path class="st1" d="M88,8.2c0.3,0,0.6,0.2,0.6,0.4l4.1,6.8c0.2,0.3,0.6,0.3,0.6,0l4.2-6.8c0.2-0.2,0.4-0.4,0.6-0.4h3.4L96,17.5
	c-0.2,0.3-0.2,0.6,0,0.8l5.8,9.6h-3.4c-0.3,0-0.6-0.2-0.6-0.4l-4.2-6.9c-0.2-0.3-0.6-0.3-0.6,0l-4.2,6.9c-0.2,0.2-0.5,0.4-0.6,0.4
	h-3.4l5.8-9.6c0.2-0.3,0.2-0.6,0-0.8l-5.7-9.3H88z"/>
<path class="st1" d="M17,27.8c4.1,0,6.5-2.2,6.5-6.2V8.1h-3.4v13.1c0,0.1,0,0.2,0,0.3V23c0,0.8-0.6,1.5-1.5,1.5h-1.6
	c-0.1,0-0.1,0-0.2,0c-0.1,0-0.1,0-0.2,0h-1.5c-0.8,0-1.5-0.7-1.5-1.5v-1.5c0-0.1,0-0.2,0-0.3h-3.4C10.7,25.2,12.8,27.8,17,27.8z"/>
<path class="st0" d="M116.9,7.1v19.3h3.5V10.9h0.3l4.2,15.6h5.1l4.2-15.6h0.3v15.6h3.5V7.1h-6.2l-4.2,15.6h-0.3l-4.2-15.6H116.9z
	 M140.4,8.8c0,1.4,1.1,2.4,2.5,2.4c1.4,0,2.5-1,2.5-2.4c0-1.4-1.1-2.4-2.5-2.4C141.4,6.4,140.4,7.4,140.4,8.8z M144.6,12.7h-3.5
	v13.7h3.5V12.7z M147.7,12.7v13.7h3.5v-7.1c0-2.5,1.2-4,3.4-4c1.9,0,2.9,1,2.9,3.1v8h3.5v-8.2c0-3.4-2.1-5.7-5.3-5.7
	c-2.5,0-3.7,1.1-4.2,2.3h-0.3v-2H147.7z M163.1,8.8c0,1.4,1.1,2.4,2.5,2.4c1.4,0,2.5-1,2.5-2.4c0-1.4-1.1-2.4-2.5-2.4
	C164.2,6.4,163.1,7.4,163.1,8.8z M167.3,12.7h-3.5v13.7h3.5V12.7z M170.4,12.7v13.7h3.5v-7.1c0-2.5,1.2-4,3.4-4c1.9,0,2.9,1,2.9,3.1
	v8h3.5v-8.2c0-3.4-2.1-5.7-5.3-5.7c-2.5,0-3.7,1.1-4.2,2.3h-0.3v-2H170.4z M196.7,12.7v1.8h-0.3c-0.8-1.2-2.2-2.2-4.5-2.2
	c-3.3,0-6.2,2.8-6.2,7c0,4.2,2.9,7,6.2,7c2.4,0,3.7-1.1,4.5-2.2h0.3v1.3c0,2.6-1.5,3.9-3.8,3.9s-3.4-1.2-3.9-2.8l-3.1,1.4
	c0.7,2.1,2.8,4.4,7.1,4.4c4.4,0,7.2-2.3,7.2-6.7V12.7H196.7z M192.9,23.4c-2.2,0-3.8-1.5-3.8-4c0-2.5,1.6-4,3.8-4s3.8,1.5,3.8,4
	C196.7,21.8,195.1,23.4,192.9,23.4z"/>
</svg>
