<?xml version="1.0" encoding="utf-8"?>
<!-- Generator: Adobe Illustrator 25.4.1, SVG Export Plug-In . SVG Version: 6.00 Build 0)  -->
<svg version="1.1" id="Layer_1" xmlns="http://www.w3.org/2000/svg" xmlns:xlink="http://www.w3.org/1999/xlink" x="0px" y="0px"
	 viewBox="0 0 663 96.1" style="enable-background:new 0 0 663 96.1;" xml:space="preserve">
<style type="text/css">
	.st0{fill:#152172;}
	.st1{fill:#FFFFFF;}
	.st2{display:none;}
</style>
<path class="st0" d="M9.8,0h72.3C87.7,0,92,4.4,92,10v73.7c0,5.6-4.3,10-9.8,10H9.8c-5.5,0-9.8-4.4-9.8-10V10C0,4.4,4.6,0,9.8,0z"/>
<path class="st0" d="M108.6,0h72.3c5.5,0,9.8,4.4,9.8,10v73.7c0,5.6-4.3,10-9.8,10h-72.3c-5.5,0-9.8-4.4-9.8-10V10
	C98.7,4.4,103,0,108.6,0z"/>
<path class="st0" d="M207,0h72.3c5.5,0,9.8,4.4,9.8,10v73.7c0,5.6-4.3,10-9.8,10H207c-5.5,0-9.8-4.4-9.8-10V10
	C197.2,4.4,201.5,0,207,0z"/>
<path class="st1" d="M152.5,23.3l14.9,49.2h-7.7c-1,0-1.7-0.5-1.9-1.5l-3.1-10.3h-19.9L131.6,71c-0.2,1-1.2,1.5-1.9,1.5H122
	l15.1-49.2c0.5-1.2,1.7-2.2,2.9-2.2h9.6C150.8,21.3,152,22,152.5,23.3z M152.5,52.9l-6.7-22.5c-0.2-1-1.7-1-1.9,0l-6.7,22.5H152.5z"
	/>
<path class="st1" d="M229.8,21.3c0.7,0,1.4,0.5,1.7,1l10.8,17.6c0.5,0.7,1.4,0.7,1.7,0l11-17.6c0.5-0.5,1-1,1.7-1h8.9l-14.9,24.3
	c-0.5,0.7-0.5,1.5,0,2.2l15.1,25H257c-0.7,0-1.4-0.5-1.7-1l-11-18.1c-0.5-0.7-1.4-0.7-1.7,0l-11,18.1c-0.5,0.5-1.2,1-1.7,1H221
	l15.1-25c0.5-0.7,0.5-1.5,0-2.2l-14.9-24.3C221.2,21.3,229.8,21.3,229.8,21.3z"/>
<path class="st1" d="M44.4,72.5c10.8,0,17.1-5.6,17.1-16.2V21.1h-8.9v34.3c0,0.2,0,0.5,0,0.7V60c0,2.2-1.7,3.9-3.8,3.9h-4.1
	c-0.2,0-0.2,0-0.5,0s-0.2,0-0.5,0h-3.8c-2.2,0-3.8-1.7-3.8-3.9v-3.9c0-0.2,0-0.5,0-0.7h-8.9C27.9,65.9,33.4,72.5,44.4,72.5z"/>
<path class="st2" d="M304.3,22.4v50.4h33.6v-8.6h-24V51.7h21.6v-8.6h-21.6V31h23.6v-8.6H304.3z M340,37.1l12.3,35.7h13.4L378,37.1
	h-9.8l-8.9,28.1h-0.7l-8.9-28.1H340z M379.3,54.9c0,11.4,7.4,18.9,18.1,18.9c9.8,0,14-5.5,16.1-9.4l-7.4-3.9
	c-1.2,2.7-3.3,5.5-8.4,5.5s-8.9-3.5-9.1-8.4h26v-3.1c0-10.9-6.8-18.4-17.4-18.4S379.3,43.6,379.3,54.9z M388.7,50.8
	c0.6-4,3.6-7,8.5-7c4.7,0,7.8,2.9,8.2,7H388.7z M420.2,37.1v35.7h9.1V54.4c0-6.6,3.2-10.5,8.8-10.5c4.9,0,7.6,2.7,7.6,8.1v20.9h9.1
	V51.5c0-8.9-5.5-15-13.9-15c-6.6,0-9.6,2.9-11,5.9h-0.7v-5.3C429.2,37.1,420.2,37.1,420.2,37.1z M457.9,44.4h8.9v20.3
	c0,4.9,3.2,8.1,7.9,8.1h10.1v-7.3H478c-1.3,0-2-0.7-2-2.2V44.4h9.8v-7.3H476V26h-9.1v11.1H458v7.3C458,44.4,457.9,44.4,457.9,44.4z
	 M491.2,47.1c0,7.1,5.9,9.6,13.4,11.1l1.9,0.4c4.5,0.9,6.5,1.9,6.5,4.2s-2,4.1-6.2,4.1s-7.6-1.7-8.5-6.9l-8.4,2.2
	c1.2,7.5,7.5,11.7,16.8,11.7c9.1,0,15-4.2,15-11.7s-6-9.5-14.1-11.1l-1.9-0.4c-3.7-0.7-5.8-1.7-5.8-4.1c0-2.2,1.9-3.5,5.3-3.5
	s5.9,1.4,6.8,5.3l8.2-2.5c-1.7-5.8-7-9.7-15-9.7C496.8,36.1,491.2,40,491.2,47.1z"/>
<g>
	<path class="st0" d="M304.2,72.7V22.2h17.7l8.7,44h1.3l8.7-44h17.7v50.5h-9.2V29.2h-1.3l-8.7,43.5h-15.7l-8.7-43.5h-1.3v43.5H304.2
		z"/>
	<path class="st0" d="M372.7,32.7c-1.6,0-3-0.5-4.1-1.6s-1.7-2.5-1.7-4.2s0.6-3.1,1.7-4.2s2.5-1.6,4.1-1.6c1.7,0,3.1,0.5,4.2,1.6
		s1.7,2.5,1.7,4.2s-0.6,3.1-1.7,4.2C375.8,32.2,374.4,32.7,372.7,32.7z M368.1,72.7V36.9h9.1v35.8H368.1z"/>
	<path class="st0" d="M387.3,72.7V36.9h8.9v4.7h1.3c0.6-1.3,1.7-2.4,3.2-3.6c1.6-1.1,4-1.7,7.2-1.7c2.8,0,5.2,0.6,7.3,1.9
		c2.1,1.3,3.7,3,4.9,5.3c1.2,2.2,1.7,4.8,1.7,7.8v21.4h-9.1V52.1c0-2.7-0.7-4.7-2-6.1c-1.3-1.3-3.2-2-5.7-2c-2.8,0-5,0.9-6.5,2.8
		c-1.5,1.9-2.3,4.4-2.3,7.8v18.2h-8.9V72.7z"/>
	<path class="st0" d="M436.3,32.7c-1.6,0-3-0.5-4.1-1.6s-1.7-2.5-1.7-4.2s0.6-3.1,1.7-4.2s2.5-1.6,4.1-1.6c1.7,0,3.1,0.5,4.2,1.6
		s1.7,2.5,1.7,4.2s-0.6,3.1-1.7,4.2C439.4,32.2,438,32.7,436.3,32.7z M431.8,72.7V36.9h9.1v35.8H431.8z"/>
	<path class="st0" d="M451,72.7V36.9h8.9v4.7h1.3c0.6-1.3,1.7-2.4,3.2-3.6c1.6-1.1,4-1.7,7.2-1.7c2.8,0,5.2,0.6,7.3,1.9
		c2.1,1.3,3.7,3,4.9,5.3c1.2,2.2,1.7,4.8,1.7,7.8v21.4h-9.1V52.1c0-2.7-0.7-4.7-2-6.1c-1.3-1.3-3.2-2-5.7-2c-2.8,0-5,0.9-6.5,2.8
		c-1.5,1.9-2.3,4.4-2.3,7.8v18.2H451V72.7z"/>
	<path class="st0" d="M493.7,54.9v-1.2c0-3.8,0.7-7,2.2-9.6s3.5-4.7,6-6.1c2.5-1.4,5.2-2.1,8.1-2.1c3.3,0,5.7,0.6,7.4,1.7
		c1.7,1.2,2.9,2.4,3.7,3.6h1.3v-4.3h8.9V79c0,2.5-0.7,4.4-2.2,5.9c-1.4,1.5-3.4,2.2-5.8,2.2h-24v-7.9h20.8c1.3,0,2-0.7,2-2.2v-9.3
		H521c-0.5,0.8-1.2,1.6-2,2.3s-2,1.5-3.5,2c-1.4,0.5-3.3,0.8-5.5,0.8c-2.9,0-5.6-0.7-8.1-2.1s-4.5-3.5-6-6.1
		C494.5,61.9,493.7,58.7,493.7,54.9z M512.6,64.9c2.8,0,5.1-0.9,7-2.7s2.8-4.3,2.8-7.5V54c0-3.3-0.9-5.8-2.8-7.5
		c-1.9-1.8-4.2-2.6-7-2.6s-5.1,0.9-7,2.6c-1.9,1.8-2.8,4.3-2.8,7.5v0.7c0,3.2,0.9,5.7,2.8,7.5C507.5,64,509.8,64.9,512.6,64.9z"/>
	<path class="st0" d="M555.2,72.7l13.3-50.5h16.6l13.3,50.5h-9.8l-2.7-11.1h-18L565,72.7H555.2z M570,52.8h13.6l-6.1-24.6h-1.3
		L570,52.8z"/>
	<path class="st0" d="M604.4,72.7V22.2h20.8c3.2,0,6,0.6,8.4,1.9s4.3,3.1,5.7,5.4s2.1,5.1,2.1,8.2v1c0,3.1-0.7,5.9-2.1,8.2
		c-1.4,2.3-3.3,4.1-5.8,5.4c-2.4,1.3-5.2,1.9-8.3,1.9h-11.3v18.5C613.9,72.7,604.4,72.7,604.4,72.7z M613.9,45.6h10.3
		c2.3,0,4.1-0.6,5.5-1.9c1.4-1.3,2.1-3,2.1-5.1v-0.7c0-2.2-0.7-3.9-2.1-5.1c-1.4-1.3-3.2-1.9-5.5-1.9h-10.3V45.6z"/>
	<path class="st0" d="M648,72.7V22.2h9.5v50.5H648z"/>
</g>
</svg>
