<svg width="293" height="98" viewBox="0 0 293 98" fill="none" xmlns="http://www.w3.org/2000/svg">
<path d="M11.7676 2.20605H84.057C89.5807 2.20605 93.9037 6.61605 93.9037 12.2511V85.996C93.9037 91.631 89.5807 96.0411 84.057 96.0411H11.7676C6.24385 96.0411 1.9209 91.631 1.9209 85.996V12.2511C1.9209 6.61605 6.48401 2.20605 11.7676 2.20605Z" fill="white"/>
<path d="M110.475 2.20605H182.764C188.288 2.20605 192.611 6.61605 192.611 12.2511V85.996C192.611 91.631 188.288 96.0411 182.764 96.0411H110.475C104.951 96.0411 100.628 91.631 100.628 85.996V12.2511C100.628 6.61605 104.951 2.20605 110.475 2.20605Z" fill="white"/>
<path d="M208.942 2.20605H281.232C286.756 2.20605 291.078 6.61605 291.078 12.2511V85.996C291.078 91.631 286.756 96.0411 281.232 96.0411H208.942C203.419 96.0411 199.096 91.631 199.096 85.996V12.2511C199.096 6.61605 203.419 2.20605 208.942 2.20605Z" fill="white"/>
<path d="M154.426 25.4804L169.316 74.7254H161.631C160.67 74.7254 159.949 74.2354 159.709 73.2554L156.587 62.9654H136.654L133.531 73.2554C133.291 74.2354 132.331 74.7254 131.61 74.7254H123.925L139.055 25.4804C139.535 24.2554 140.736 23.2754 141.937 23.2754H151.544C152.744 23.5204 153.945 24.2554 154.426 25.4804ZM154.426 55.1254L147.701 32.5854C147.461 31.6054 146.02 31.6054 145.78 32.5854L139.055 55.1254H154.426Z" fill="#152172"/>
<path d="M231.758 23.5195C232.479 23.5195 233.199 24.0095 233.439 24.4995L244.247 42.1395C244.727 42.8745 245.688 42.8745 245.928 42.1395L256.975 24.4995C257.456 24.0095 257.936 23.5195 258.656 23.5195H267.543L252.652 47.7745C252.172 48.5095 252.172 49.2445 252.652 49.9795L267.783 74.9695H258.897C258.176 74.9695 257.456 74.4795 257.215 73.9895L246.168 55.8595C245.688 55.1245 244.727 55.1245 244.487 55.8595L233.439 73.9895C232.959 74.4795 232.238 74.9695 231.758 74.9695H222.872L238.002 49.9795C238.483 49.2445 238.483 48.5095 238.002 47.7745L223.112 23.5195H231.758V23.5195Z" fill="#152172"/>
<path d="M46.3519 74.7254C57.1592 74.7254 63.4035 69.0904 63.4035 58.5554V23.2754H54.5174V57.5754C54.5174 57.8204 54.5174 58.0654 54.5174 58.3104V62.2304C54.5174 64.4354 52.8363 66.1504 50.6748 66.1504H46.592C46.3519 66.1504 46.3519 66.1504 46.1117 66.1504C45.8715 66.1504 45.8715 66.1504 45.6314 66.1504H41.7887C39.6273 66.1504 37.9461 64.4354 37.9461 62.2304V58.3104C37.9461 58.0654 37.9461 57.8204 37.9461 57.5754H29.0601C29.7806 68.1104 35.3043 74.7254 46.3519 74.7254Z" fill="#152172"/>
</svg>
