<?xml version="1.0" encoding="utf-8"?>
<!-- Generator: Adobe Illustrator 25.2.1, SVG Export Plug-In . SVG Version: 6.00 Build 0)  -->
<svg version="1.1" id="Слой_1" xmlns="http://www.w3.org/2000/svg" xmlns:xlink="http://www.w3.org/1999/xlink" x="0px" y="0px"
	 viewBox="0 0 130 130" style="enable-background:new 0 0 130 130;" xml:space="preserve">
<style type="text/css">
	.st0{fill:#152172;}
</style>
<g>
	<path class="st0" d="M65,3c34.2,0,62,27.8,62,62c0,34.2-27.8,62-62,62C30.8,127,3,99.2,3,65C3,30.8,30.8,3,65,3 M65,1L65,1
		C29.8,1,1,29.8,1,65v0c0,35.2,28.8,64,64,64h0c35.2,0,64-28.8,64-64v0C129,29.8,100.2,1,65,1L65,1z"/>
</g>
<path class="st0" d="M76.9,36.4h15.6V20.9H76.9V36.4z"/>
<path class="st0" d="M62.5,109.1c19,0,29.9-9.7,29.9-27.7V52H76.9l0,35.3c0,3.8-3.1,6.9-6.9,6.9H55c-3.8,0-6.9-3.1-6.9-6.9v-7.6
	H32.5C33.2,97.7,43.1,109.1,62.5,109.1z"/>
<path class="st0" d="M76.9,36.4H48.2V52h28.7V36.4z"/>
</svg>
