<?xml version="1.0" encoding="utf-8"?>
<!-- Generator: Adobe Illustrator 25.4.1, SVG Export Plug-In . SVG Version: 6.00 Build 0)  -->
<svg version="1.1" id="Слой_1" xmlns="http://www.w3.org/2000/svg" xmlns:xlink="http://www.w3.org/1999/xlink" x="0px" y="0px"
	 viewBox="0 0 130 130" style="enable-background:new 0 0 130 130;" xml:space="preserve">
<style type="text/css">
	.st0{fill:#222A7C;}
</style>
<g>
	<path class="st0" d="M65,3c34.2,0,62,27.8,62,62s-27.8,62-62,62S3,99.2,3,65S30.8,3,65,3 M65,1L65,1C29.8,1,1,29.8,1,65l0,0
		c0,35.2,28.8,64,64,64l0,0c35.2,0,64-28.8,64-64l0,0C129,29.8,100.2,1,65,1L65,1z"/>
</g>
<g>
	<rect x="57.8" y="26.7" class="st0" width="12.6" height="12.7"/>
	<path class="st0" d="M82.1,39.4c-15.5,0-24.4,7.9-24.4,22.6v10.5l0,0v8.4c0,3.1-2.5,5.7-5.7,5.7h-5.5c-0.2,0-0.4,0-0.6,0
		c-0.2,0-0.4,0-0.6,0h-5.5c-3.1,0-5.7-2.5-5.7-5.7v-6.2H21.5c0.6,14.7,8.6,24,24.4,24c15.5,0,24.4-7.9,24.4-22.6v-7l0,0V57.2
		c0-3.1,2.5-5.7,5.7-5.7h5.5c0.2,0,0.4,0,0.6,0s0.4,0,0.6,0h5.5c3.1,0,5.7,2.5,5.7,5.7v41.5h12.7V63.4C106,48.7,97.9,39.4,82.1,39.4
		z"/>
	<rect x="34.2" y="39.4" class="st0" width="23.4" height="12.7"/>
</g>
</svg>
