<?xml version="1.0" encoding="utf-8"?>
<!-- Generator: Adobe Illustrator 25.4.1, SVG Export Plug-In . SVG Version: 6.00 Build 0)  -->
<svg version="1.1" id="Слой_1" xmlns="http://www.w3.org/2000/svg" xmlns:xlink="http://www.w3.org/1999/xlink" x="0px" y="0px"
	 viewBox="0 0 799 130" style="enable-background:new 0 0 799 130;" xml:space="preserve">
<style type="text/css">
	.st0{fill:#FFFFFF;}
	.st1{enable-background:new    ;}
</style>
<g>
	<path class="st0" d="M65,3c34.2,0,62,27.8,62,62s-27.8,62-62,62S3,99.2,3,65S30.8,3,65,3 M65,1L65,1C29.8,1,1,29.8,1,65l0,0
		c0,35.2,28.8,64,64,64l0,0c35.2,0,64-28.8,64-64l0,0C129,29.8,100.2,1,65,1L65,1z"/>
</g>
<g>
	<rect x="57.8" y="26.7" class="st0" width="12.6" height="12.7"/>
	<path class="st0" d="M82.1,39.4c-15.5,0-24.4,7.9-24.4,22.6v10.5l0,0v8.4c0,3.1-2.5,5.7-5.7,5.7h-5.5c-0.2,0-0.4,0-0.6,0
		c-0.2,0-0.4,0-0.6,0h-5.5c-3.1,0-5.7-2.5-5.7-5.7v-6.2H21.5c0.6,14.7,8.6,24,24.4,24c15.5,0,24.4-7.9,24.4-22.6v-7l0,0V57.2
		c0-3.1,2.5-5.7,5.7-5.7h5.5c0.2,0,0.4,0,0.6,0s0.4,0,0.6,0h5.5c3.1,0,5.7,2.5,5.7,5.7v41.5h12.7V63.4C106,48.7,97.9,39.4,82.1,39.4
		z"/>
	<rect x="34.2" y="39.4" class="st0" width="23.4" height="12.7"/>
</g>
<g class="st1">
	<path class="st0" d="M153.6,93.3l-8.1-55.1h8.5l6.6,49.4h1.3l8.5-49.4h14.9l8.5,49.4h1.3l6.5-49.4h8.5L202,93.3h-14.9l-8.7-50.1
		h-1.3l-8.6,50.1H153.6z"/>
	<path class="st0" d="M218.7,93.3V54.5h8V59h1.3c0.6-1.6,1.6-2.8,3-3.6c1.4-0.8,3.1-1.1,5.2-1.1h4.6v7.3h-5c-2.6,0-4.8,0.7-6.5,2.2
		c-1.7,1.4-2.5,3.7-2.5,6.7v22.8H218.7z"/>
	<path class="st0" d="M260.1,94.4c-2.8,0-5.3-0.5-7.4-1.4c-2.2-0.9-3.9-2.3-5.2-4.2c-1.3-1.8-1.9-4.1-1.9-6.7c0-2.7,0.6-4.9,1.9-6.7
		c1.3-1.8,3-3.1,5.3-4c2.2-0.9,4.8-1.3,7.6-1.3h11.8v-2.5c0-2.3-0.7-4.1-2-5.4c-1.4-1.4-3.5-2-6.3-2c-2.8,0-4.9,0.7-6.4,2
		c-1.5,1.3-2.4,3-2.9,5.1l-7.6-2.4c0.6-2.1,1.6-4,3-5.7c1.4-1.7,3.2-3.1,5.6-4.1c2.3-1,5.1-1.6,8.3-1.6c5,0,9,1.3,11.9,3.9
		c2.9,2.6,4.3,6.2,4.3,10.9v16c0,1.6,0.7,2.4,2.2,2.4h3.3v6.8h-6.1c-1.8,0-3.3-0.5-4.5-1.4c-1.2-0.9-1.7-2.2-1.7-3.9v-0.2h-1.2
		c-0.4,0.8-1.1,1.7-1.9,2.8c-0.8,1.1-2.1,2-3.7,2.7C265,94,262.8,94.4,260.1,94.4z M261.3,87.7c3.3,0,5.9-0.9,7.9-2.8
		c2-1.9,3-4.4,3-7.7v-0.8h-11.3c-2.2,0-3.9,0.5-5.2,1.4c-1.3,0.9-2,2.3-2,4.1s0.7,3.2,2,4.3C257.1,87.2,259,87.7,261.3,87.7z"/>
	<path class="st0" d="M293.5,109.1V54.5h8v5.6h1.3c1-1.7,2.5-3.3,4.5-4.6c2-1.4,4.9-2,8.7-2c3.3,0,6.2,0.8,8.9,2.4
		c2.7,1.6,4.9,3.8,6.5,6.8c1.7,3,2.5,6.6,2.5,10.8v1.2c0,4.2-0.8,7.8-2.4,10.8c-1.6,3-3.8,5.2-6.5,6.8c-2.7,1.6-5.7,2.4-9,2.4
		c-2.5,0-4.6-0.3-6.4-0.9c-1.7-0.6-3.1-1.4-4.2-2.4c-1.1-1-1.9-2-2.5-3h-1.3v21H293.5z M313.6,87.3c3.6,0,6.5-1.1,8.7-3.4
		c2.3-2.3,3.4-5.5,3.4-9.7v-0.7c0-4.1-1.1-7.4-3.4-9.6c-2.3-2.3-5.2-3.4-8.7-3.4c-3.5,0-6.3,1.1-8.6,3.4c-2.3,2.3-3.4,5.5-3.4,9.6
		v0.7c0,4.2,1.1,7.4,3.4,9.7S310.2,87.3,313.6,87.3z"/>
	<path class="st0" d="M344,109.1V54.5h8v5.6h1.3c1-1.7,2.5-3.3,4.5-4.6c2-1.4,4.9-2,8.7-2c3.3,0,6.2,0.8,8.9,2.4
		c2.7,1.6,4.9,3.8,6.5,6.8c1.7,3,2.5,6.6,2.5,10.8v1.2c0,4.2-0.8,7.8-2.4,10.8c-1.6,3-3.8,5.2-6.5,6.8c-2.7,1.6-5.7,2.4-9,2.4
		c-2.5,0-4.6-0.3-6.4-0.9c-1.7-0.6-3.1-1.4-4.2-2.4c-1.1-1-1.9-2-2.5-3h-1.3v21H344z M364.1,87.3c3.6,0,6.5-1.1,8.7-3.4
		c2.3-2.3,3.4-5.5,3.4-9.7v-0.7c0-4.1-1.1-7.4-3.4-9.6c-2.3-2.3-5.2-3.4-8.7-3.4c-3.5,0-6.3,1.1-8.6,3.4c-2.3,2.3-3.4,5.5-3.4,9.6
		v0.7c0,4.2,1.1,7.4,3.4,9.7S360.6,87.3,364.1,87.3z"/>
	<path class="st0" d="M412.3,94.4c-3.9,0-7.4-0.8-10.3-2.5c-2.9-1.7-5.2-4-6.9-7c-1.7-3-2.5-6.5-2.5-10.5v-0.9c0-4,0.8-7.6,2.4-10.6
		c1.6-3,3.9-5.4,6.8-7c2.9-1.7,6.3-2.5,10.1-2.5c3.7,0,7,0.8,9.8,2.5c2.8,1.7,5,4,6.6,6.9c1.6,2.9,2.4,6.4,2.4,10.3v3.1h-29.9
		c0.1,3.4,1.2,6.1,3.4,8.2c2.2,2,4.9,3,8.2,3c3,0,5.3-0.7,6.9-2c1.5-1.4,2.7-2.9,3.6-4.7l6.7,3.5c-0.7,1.5-1.8,3-3.2,4.6
		c-1.4,1.6-3.2,3-5.5,4.1C418.7,93.9,415.8,94.4,412.3,94.4z M401,69.9h21.5c-0.2-2.9-1.3-5.2-3.2-6.9s-4.4-2.5-7.4-2.5
		s-5.5,0.8-7.4,2.5C402.6,64.7,401.4,67,401,69.9z"/>
	<path class="st0" d="M456.6,94.4c-3.2,0-6.2-0.8-8.9-2.4c-2.7-1.6-4.9-3.8-6.6-6.8s-2.5-6.6-2.5-10.8v-1.2c0-4.1,0.8-7.7,2.4-10.7
		c1.6-3,3.8-5.3,6.5-6.9c2.7-1.6,5.7-2.4,9-2.4c2.5,0,4.6,0.3,6.3,0.9c1.7,0.6,3.1,1.4,4.2,2.4c1.1,1,1.9,2,2.5,3h1.3V38.2h8.1v55.1
		h-8v-5.5h-1.3c-1,1.7-2.5,3.2-4.5,4.6S460.4,94.4,456.6,94.4z M458.9,87.3c3.5,0,6.4-1.1,8.7-3.4c2.3-2.3,3.4-5.5,3.4-9.7v-0.7
		c0-4.1-1.1-7.4-3.4-9.6c-2.3-2.3-5.2-3.4-8.7-3.4c-3.5,0-6.3,1.1-8.6,3.4c-2.3,2.3-3.4,5.5-3.4,9.6v0.7c0,4.2,1.1,7.4,3.4,9.7
		S455.4,87.3,458.9,87.3z"/>
	<path class="st0" d="M526,94.4c-5.5,0-9.9-1.5-13.2-4.6c-3.3-3.1-4.9-7.4-4.9-13V72h8.5v4.7c0,2.9,0.8,5.3,2.4,7
		c1.6,1.8,3.9,2.6,7,2.6c2.9,0,5.1-0.9,6.5-2.6c1.4-1.7,2.1-4.1,2.1-7.1V45.9h-9.6v-7.7h24.3v7.7H543v30.9c0,5.7-1.5,10.1-4.5,13.1
		C535.6,92.9,531.4,94.4,526,94.4z"/>
	<path class="st0" d="M551.4,93.3l15.8-55.1h15l15.7,55.1h-8.7l-3.6-13h-21.6l-3.6,13H551.4z M566,72.4h17.3l-8-29H574L566,72.4z"/>
	<path class="st0" d="M601.7,93.3l16.9-27.8l-16.7-27.3h9.8l12.4,21.3h1.3l12.5-21.3h9.8L631,65.5l16.9,27.8h-9.8l-12.7-21.7h-1.3
		l-12.7,21.7H601.7z"/>
	<path class="st0" d="M655.8,93.3V38.2h16.4l15,49.5h1.3V38.2h8.4v55.1h-16.4l-15-49.5h-1.3v49.5H655.8z"/>
	<path class="st0" d="M708.3,93.3V38.2h34.7v7.7h-26.2v15.8h24v7.7h-24v16.1h26.6v7.7H708.3z"/>
	<path class="st0" d="M765.5,93.3V45.9h-16.9v-7.7H791v7.7H774v47.4H765.5z"/>
</g>
</svg>
