<?xml version="1.0" encoding="utf-8"?>
<!-- Generator: Adobe Illustrator 25.4.1, SVG Export Plug-In . SVG Version: 6.00 Build 0)  -->
<svg version="1.1" id="Layer_1" xmlns="http://www.w3.org/2000/svg" xmlns:xlink="http://www.w3.org/1999/xlink" x="0px" y="0px"
	 viewBox="0 0 132.3 126.6" style="enable-background:new 0 0 132.3 126.6;" xml:space="preserve">
<style type="text/css">
	.st0{fill:#F3BA2F;}
</style>
<path class="st0" d="M38.7,53.2l24.6-24.6l24.6,24.6l14.3-14.3L63.3,0L24.4,38.9L38.7,53.2z"/>
<path class="st0" d="M0,63.3L14.3,49l14.3,14.3L14.3,77.6L0,63.3z"/>
<path class="st0" d="M38.7,73.4L63.3,98l24.6-24.6l14.3,14.3l0,0l-38.9,38.9L24.4,87.7l0,0L38.7,73.4z"/>
<path class="st0" d="M98,63.3L112.3,49l14.3,14.3l-14.3,14.3L98,63.3z"/>
<path class="st0" d="M77.8,63.3L63.3,48.8L52.6,59.5l-1.2,1.2l-2.5,2.5l0,0l0,0l14.5,14.5L77.8,63.3L77.8,63.3L77.8,63.3z"/>
</svg>
