<?xml version="1.0" encoding="utf-8"?>
<!-- Generator: Adobe Illustrator 16.0.0, SVG Export Plug-In . SVG Version: 6.00 Build 0)  -->
<!DOCTYPE svg PUBLIC "-//W3C//DTD SVG 1.1//EN" "http://www.w3.org/Graphics/SVG/1.1/DTD/svg11.dtd">
<svg version="1.1" id="Layer_1" xmlns="http://www.w3.org/2000/svg" xmlns:xlink="http://www.w3.org/1999/xlink" x="0px" y="0px"
	 width="595.279px" height="841.89px" viewBox="0 0 595.279 841.89" enable-background="new 0 0 595.279 841.89"
	 xml:space="preserve">
<g>
	<path fill="#131B6A" d="M460.819,176.807v39.747h62.681h0.051v0.103c19.797,0.052,37.742,8.073,50.699,21.082
		c12.855,12.906,20.877,30.749,20.928,50.494h0.104v0.103v376.749v0.051h-0.104c-0.051,19.746-8.072,37.691-21.082,50.699
		c-12.906,12.855-30.748,20.877-50.493,20.928v0.104h-0.103H206.242h-0.052v-0.104c-19.744-0.051-37.741-8.072-50.699-21.082
		c-12.854-12.906-20.876-30.748-20.928-50.492h-0.103v-0.104v-84.379h-62.68H71.73v-0.104c-19.745-0.051-37.741-8.072-50.699-21.082
		C8.176,546.613,0.155,528.771,0.103,509.027H0v-0.104V176.807v-0.051h0.103c0.052-19.796,8.124-37.742,21.082-50.7
		c12.906-12.854,30.749-20.876,50.493-20.927v-0.103h0.104h317.256h0.052v0.103c19.796,0.051,37.741,8.073,50.699,21.082
		c12.854,12.906,20.876,30.749,20.928,50.494h0.103V176.807L460.819,176.807z M406.417,216.554v-39.747v-0.103h0.103
		c0-4.679-2.005-8.998-5.193-12.186c-3.137-3.137-7.507-5.142-12.186-5.142v0.103h-0.052H71.832H71.73v-0.103
		c-4.679,0-8.998,2.005-12.187,5.193c-3.137,3.137-5.142,7.507-5.142,12.187h0.103v0.051v332.117v0.104h-0.103
		c0,4.678,2.005,8.998,5.193,12.186c3.137,3.137,7.507,5.143,12.187,5.143v-0.104h0.051h62.681V288.335v-0.051h0.103
		c0.052-19.796,8.124-37.742,21.082-50.7c12.906-12.854,30.748-20.876,50.493-20.927v-0.103h0.104H406.417L406.417,216.554z
		 M540.827,665.083V288.335v-0.103h0.103c0-4.679-2.006-8.998-5.193-12.186c-3.137-3.137-7.507-5.142-12.187-5.142v0.103h-0.052
		H206.242h-0.103v-0.103c-4.68,0-8.999,2.005-12.187,5.193c-3.137,3.137-5.142,7.507-5.142,12.187h0.103v0.051v376.749v0.104h-0.103
		c0,4.678,2.005,8.998,5.193,12.186c3.136,3.137,7.507,5.143,12.186,5.143v-0.104h0.052h317.256h0.104v0.104
		c4.679,0,8.998-2.006,12.187-5.193c3.136-3.137,5.142-7.508,5.142-12.188h-0.103V665.083L540.827,665.083z"/>
</g>
</svg>
