<svg width="15" height="20" viewBox="0 0 15 20" fill="none" xmlns="http://www.w3.org/2000/svg">
    <path d="M0.16043 17.9567C-0.1396 18.4204 -0.0069331 19.0395 0.456749 19.3396C0.920431 19.6396 1.53954 19.5069 1.83957 19.0433L0.16043 17.9567ZM12.9778 1.29047C12.8621 0.750445 12.3305 0.406477 11.7905 0.522197L2.99025 2.40796C2.45022 2.52368 2.10626 3.05527 2.22198 3.59529C2.3377 4.13532 2.86928 4.47928 3.40931 4.36356L11.2317 2.68733L12.908 10.5098C13.0237 11.0498 13.5553 11.3937 14.0953 11.278C14.6353 11.1623 14.9793 10.6307 14.8636 10.0907L12.9778 1.29047ZM1.83957 19.0433L12.8396 2.04325L11.1604 0.956748L0.16043 17.9567L1.83957 19.0433Z" fill="white"/>
</svg>
