<?xml version="1.0" encoding="utf-8"?>
<!-- Generator: Adobe Illustrator 25.4.1, SVG Export Plug-In . SVG Version: 6.00 Build 0)  -->
<svg version="1.1" id="Layer_1" xmlns="http://www.w3.org/2000/svg" xmlns:xlink="http://www.w3.org/1999/xlink" x="0px" y="0px"
	 viewBox="0 0 45.8 45.4" style="enable-background:new 0 0 45.8 45.4;" xml:space="preserve">
<style type="text/css">
	.st0{fill:none;stroke:#152172;stroke-width:2;stroke-linecap:round;stroke-linejoin:round;}
</style>
<path class="st0" d="M16.8,43.5h12.5c10.4,0,14.6-4.2,14.6-14.6V16.4C43.9,6,39.7,1.8,29.3,1.8H16.8C6.4,1.8,2.2,6,2.2,16.4v12.5
	C2.2,39.4,6.3,43.5,16.8,43.5z"/>
<path class="st0" d="M12,17l11,6.4L34,17"/>
<path class="st0" d="M23,34.7V23.3"/>
<path class="st0" d="M20.4,10.8l-6.7,3.7c-1.5,0.8-2.8,2.9-2.8,4.7v7.1c0,1.7,1.2,3.8,2.8,4.7l6.7,3.7c1.4,0.8,3.8,0.8,5.2,0
	l6.7-3.7c1.5-0.8,2.8-2.9,2.8-4.7v-7.1c0-1.7-1.2-3.8-2.8-4.7l-6.7-3.7C24.2,10,21.8,10,20.4,10.8z"/>
</svg>
