<?xml version="1.0" encoding="utf-8"?>
<!-- Generator: Adobe Illustrator 25.4.1, SVG Export Plug-In . SVG Version: 6.00 Build 0)  -->
<svg version="1.1" id="Layer_1" xmlns="http://www.w3.org/2000/svg" xmlns:xlink="http://www.w3.org/1999/xlink" x="0px" y="0px"
	 viewBox="0 0 66.6 52.3" style="enable-background:new 0 0 66.6 52.3;" xml:space="preserve">
<style type="text/css">
	.st0{fill:none;stroke:#152172;stroke-width:3;stroke-linecap:round;stroke-linejoin:round;}
</style>
<path class="st0" d="M33.1,26.3c5.1,0,9.2-4.1,9.2-9.2s-4.1-9.2-9.2-9.2s-9.2,4.1-9.2,9.2S28,26.3,33.1,26.3z"/>
<path class="st0" d="M48.9,44.7c0-7.1-7.1-12.9-15.8-12.9s-15.8,5.8-15.8,12.9"/>
<path class="st0" d="M12.8,31.8c3.4,0,6.1-2.7,6.1-6.1s-2.7-6.1-6.1-6.1s-6.1,2.7-6.1,6.1C6.7,29.1,9.4,31.8,12.8,31.8z"/>
<path class="st0" d="M19.3,38.3c0,0-1.8-2.8-6.4-2.8c-5.8,0-10.5,3.8-10.5,8.6"/>
<path class="st0" d="M53.4,31.8c3.4,0,6.1-2.7,6.1-6.1s-2.8-6.1-6.1-6.1s-6.1,2.7-6.1,6.1C47.2,29.1,50,31.8,53.4,31.8z"/>
<path class="st0" d="M63.9,44.1c0-4.8-4.7-8.6-10.5-8.6S47,37.3,47,37.3"/>
</svg>
