<?xml version="1.0" encoding="utf-8"?>
<!-- Generator: Adobe Illustrator 25.4.1, SVG Export Plug-In . SVG Version: 6.00 Build 0)  -->
<svg version="1.1" id="Layer_1" xmlns="http://www.w3.org/2000/svg" xmlns:xlink="http://www.w3.org/1999/xlink" x="0px" y="0px"
	 viewBox="0 0 54.5 51.1" style="enable-background:new 0 0 54.5 51.1;" xml:space="preserve">
<style type="text/css">
	.st0{clip-path:url(#SVGID_00000142866295814947066680000001814351955311273374_);}
	.st1{fill:url(#SVGID_00000119834158230329789600000002415148362931616946_);}
	.st2{fill:url(#SVGID_00000008870892026341627130000003144450735718800787_);}
	.st3{fill:url(#SVGID_00000165204311022484387220000010464109407842129074_);}
	.st4{fill:url(#SVGID_00000008135010397747061020000015215973085013809806_);}
	.st5{fill:url(#SVGID_00000048469260502054754380000017101455571957114296_);}
	.st6{fill:url(#SVGID_00000123433291806142941920000013090720869781061051_);}
	.st7{fill:url(#SVGID_00000137118818381739927300000006324477927519214983_);}
</style>
<g>
	<g>
		<defs>
			<rect id="SVGID_1_" x="1.9" width="50" height="50"/>
		</defs>
		<clipPath id="SVGID_00000158711815164409923080000008637562348813043887_">
			<use xlink:href="#SVGID_1_"  style="overflow:visible;"/>
		</clipPath>
		<g style="clip-path:url(#SVGID_00000158711815164409923080000008637562348813043887_);">
			
				<linearGradient id="SVGID_00000047766669639926604790000006925752239025613757_" gradientUnits="userSpaceOnUse" x1="51.8096" y1="792.6047" x2="1.8086" y2="793.5987" gradientTransform="matrix(1 0 0 1 0 -762)">
				<stop  offset="0" style="stop-color:#161F78"/>
				<stop  offset="1" style="stop-color:#000640"/>
			</linearGradient>
			<path style="fill:url(#SVGID_00000047766669639926604790000006925752239025613757_);" d="M44.6,13.4H9.2c-4,0-7.3,3.3-7.3,7.3
				v20.8c0,4,3.3,7.3,7.3,7.3h35.4c4,0,7.3-3.3,7.3-7.3V20.7C51.9,16.7,48.6,13.4,44.6,13.4z M49.8,41.6c0,2.9-2.3,5.2-5.2,5.2H9.2
				c-2.9,0-5.2-2.3-5.2-5.2V20.8c0-2.9,2.3-5.2,5.2-5.2h35.4c2.9,0,5.2,2.3,5.2,5.2L49.8,41.6L49.8,41.6z"/>
			
				<linearGradient id="SVGID_00000174594421652733559160000017222853900617790624_" gradientUnits="userSpaceOnUse" x1="45.6333" y1="793.0558" x2="39.3839" y2="793.1438" gradientTransform="matrix(1 0 0 1 0 -762)">
				<stop  offset="0" style="stop-color:#161F78"/>
				<stop  offset="1" style="stop-color:#000640"/>
			</linearGradient>
			<path style="fill:url(#SVGID_00000174594421652733559160000017222853900617790624_);" d="M42.5,28c-1.7,0-3.1,1.4-3.1,3.1
				s1.4,3.1,3.1,3.1s3.1-1.4,3.1-3.1S44.2,28,42.5,28z M42.5,32.2c-0.6,0-1-0.5-1-1s0.5-1,1-1s1,0.5,1,1S43.1,32.2,42.5,32.2z"/>
			
				<linearGradient id="SVGID_00000036944838008360659280000000463041128172257668_" gradientUnits="userSpaceOnUse" x1="51.8672" y1="793.0172" x2="35.1982" y2="793.2852" gradientTransform="matrix(1 0 0 1 0 -762)">
				<stop  offset="0" style="stop-color:#161F78"/>
				<stop  offset="1" style="stop-color:#000640"/>
			</linearGradient>
			<path style="fill:url(#SVGID_00000036944838008360659280000000463041128172257668_);" d="M50.9,23.8h-8.3c-4,0-7.3,3.3-7.3,7.3
				s3.3,7.3,7.3,7.3h8.3c0.6,0,1-0.5,1-1V24.9C51.9,24.3,51.4,23.8,50.9,23.8z M49.8,36.3h-7.3c-2.9,0-5.2-2.3-5.2-5.2
				s2.3-5.2,5.2-5.2h7.3V36.3z"/>
			
				<linearGradient id="SVGID_00000160153375027216468090000007849849679135426488_" gradientUnits="userSpaceOnUse" x1="44.5375" y1="770.0632" x2="8.1231" y2="771.3648" gradientTransform="matrix(1 0 0 1 0 -762)">
				<stop  offset="0" style="stop-color:#161F78"/>
				<stop  offset="1" style="stop-color:#000640"/>
			</linearGradient>
			<path style="fill:url(#SVGID_00000160153375027216468090000007849849679135426488_);" d="M44.5,14l-4.4-8.8
				c-0.9-1.8-2.4-3.1-4.3-3.7c-1.9-0.6-3.9-0.4-5.7,0.5L8.7,13.5c-0.5,0.3-0.7,0.9-0.4,1.4c0.3,0.5,0.9,0.7,1.4,0.4L31.1,3.8
				c1.2-0.7,2.7-0.8,4-0.4c1.4,0.4,2.4,1.4,3.1,2.6l4.4,8.8c0.2,0.4,0.6,0.6,0.9,0.6c0.2,0,0.3,0,0.5-0.1
				C44.5,15.1,44.8,14.5,44.5,14z"/>
			
				<linearGradient id="SVGID_00000173864070690606609440000000051145049838263716_" gradientUnits="userSpaceOnUse" x1="40.4041" y1="772.0223" x2="22.8451" y2="772.4391" gradientTransform="matrix(1 0 0 1 0 -762)">
				<stop  offset="0" style="stop-color:#161F78"/>
				<stop  offset="1" style="stop-color:#000640"/>
			</linearGradient>
			<path style="fill:url(#SVGID_00000173864070690606609440000000051145049838263716_);" d="M40.3,5.6c-0.3-0.5-0.9-0.7-1.4-0.4
				l-15.5,8.3c-0.5,0.3-0.7,0.9-0.4,1.4c0.2,0.3,0.5,0.5,0.9,0.5c0.2,0,0.3,0,0.5-0.1L39.9,7C40.4,6.8,40.6,6.2,40.3,5.6z"/>
			
				<linearGradient id="SVGID_00000128444386642069486530000003506629522951176079_" gradientUnits="userSpaceOnUse" x1="21.6521" y1="776.2404" x2="1.8591" y2="776.6194" gradientTransform="matrix(1 0 0 1 0 -762)">
				<stop  offset="0" style="stop-color:#161F78"/>
				<stop  offset="1" style="stop-color:#000640"/>
			</linearGradient>
			<path style="fill:url(#SVGID_00000128444386642069486530000003506629522951176079_);" d="M20.7,7.2h-7.3
				c-6.3,0-11.5,5.1-11.5,11.5v2.1c0,0.6,0.5,1,1,1c0.6,0,1-0.5,1-1v-2.1c0-5.2,4.2-9.4,9.4-9.4h7.3c0.6,0,1-0.5,1-1
				C21.7,7.6,21.2,7.2,20.7,7.2z"/>
			
				<linearGradient id="SVGID_00000171690651050375153420000014539954361952804994_" gradientUnits="userSpaceOnUse" x1="51.8741" y1="776.3741" x2="39.3711" y2="776.5251" gradientTransform="matrix(1 0 0 1 0 -762)">
				<stop  offset="0" style="stop-color:#161F78"/>
				<stop  offset="1" style="stop-color:#000640"/>
			</linearGradient>
			<path style="fill:url(#SVGID_00000171690651050375153420000014539954361952804994_);" d="M40.4,7.2c-0.6,0-1,0.5-1,1
				c0,0.6,0.5,1,1,1c5.2,0,9.4,4.2,9.4,9.4v2.1c0,0.6,0.5,1,1,1c0.6,0,1-0.5,1-1v-2.1C51.9,12.3,46.8,7.2,40.4,7.2z"/>
		</g>
	</g>
</g>
</svg>
