<?xml version="1.0" encoding="utf-8"?>
<!-- Generator: Adobe Illustrator 24.3.0, SVG Export Plug-In . SVG Version: 6.00 Build 0)  -->
<svg version="1.1" id="Layer_1" xmlns="http://www.w3.org/2000/svg" xmlns:xlink="http://www.w3.org/1999/xlink" x="0px" y="0px"
	 viewBox="0 0 525 100" style="enable-background:new 0 0 525 100;" xml:space="preserve">
<style type="text/css">
	.st0{fill:#152172;}
	.st1{fill:#FFFFFF;}
</style>
<path class="st0" d="M10.3,4.4h68.5c5.2,0,9.3,4.2,9.3,9.5v69.9c0,5.3-4.1,9.5-9.3,9.5H10.3c-5.2,0-9.3-4.2-9.3-9.5V13.9
	C1,8.6,5.3,4.4,10.3,4.4z"/>
<path class="st0" d="M103.9,4.4h68.5c5.2,0,9.3,4.2,9.3,9.5v69.9c0,5.3-4.1,9.5-9.3,9.5h-68.5c-5.2,0-9.3-4.2-9.3-9.5V13.9
	C94.6,8.6,98.7,4.4,103.9,4.4z"/>
<path class="st0" d="M197.2,4.4h68.5c5.2,0,9.3,4.2,9.3,9.5v69.9c0,5.3-4.1,9.5-9.3,9.5h-68.5c-5.2,0-9.3-4.2-9.3-9.5V13.9
	C187.9,8.6,192,4.4,197.2,4.4z"/>
<path class="st1" d="M145.6,26.5l14.1,46.7h-7.3c-0.9,0-1.6-0.5-1.8-1.4l-3-9.8h-18.9l-3,9.8c-0.2,0.9-1.1,1.4-1.8,1.4h-7.3
	L131,26.5c0.5-1.2,1.6-2.1,2.7-2.1h9.1C144,24.6,145.1,25.3,145.6,26.5z M145.6,54.6l-6.4-21.4c-0.2-0.9-1.6-0.9-1.8,0L131,54.6
	H145.6z"/>
<path class="st1" d="M218.9,24.6c0.7,0,1.4,0.5,1.6,0.9l10.2,16.7c0.5,0.7,1.4,0.7,1.6,0l10.5-16.7c0.5-0.5,0.9-0.9,1.6-0.9h8.4
	l-14.1,23c-0.5,0.7-0.5,1.4,0,2.1L253,73.4h-8.4c-0.7,0-1.4-0.5-1.6-0.9l-10.5-17.2c-0.5-0.7-1.4-0.7-1.6,0l-10.5,17.2
	c-0.5,0.5-1.1,0.9-1.6,0.9h-8.4l14.3-23.7c0.5-0.7,0.5-1.4,0-2.1l-14.1-23H218.9z"/>
<path class="st1" d="M43.1,73.2c10.2,0,16.2-5.3,16.2-15.3V24.4h-8.4v32.5c0,0.2,0,0.5,0,0.7v3.7c0,2.1-1.6,3.7-3.6,3.7h-3.9
	c-0.2,0-0.2,0-0.5,0c-0.2,0-0.2,0-0.5,0h-3.6c-2,0-3.6-1.6-3.6-3.7v-3.7c0-0.2,0-0.5,0-0.7h-8.4C27.4,66.9,32.6,73.2,43.1,73.2z"/>
<g>
	<path d="M288.1,75.3V25.4h17.4l8.6,43.4h1.3l8.6-43.4h17.4v49.8h-9.1V32.3h-1.3l-8.5,42.9H307l-8.5-42.9h-1.3v42.9H288.1z"/>
	<path d="M368,76.3c-3.5,0-6.7-0.7-9.5-2.1c-2.8-1.4-5-3.5-6.6-6.2c-1.6-2.7-2.4-6-2.4-9.8v-1.1c0-3.8,0.8-7,2.4-9.8
		c1.6-2.7,3.8-4.8,6.6-6.2c2.8-1.4,6-2.1,9.5-2.1c3.5,0,6.7,0.7,9.5,2.1c2.8,1.4,5,3.5,6.6,6.2c1.6,2.7,2.4,6,2.4,9.8v1.1
		c0,3.8-0.8,7-2.4,9.8c-1.6,2.7-3.8,4.8-6.6,6.2C374.7,75.6,371.5,76.3,368,76.3z M368,68.3c2.8,0,5-0.9,6.8-2.7
		c1.8-1.8,2.7-4.3,2.7-7.7v-0.7c0-3.3-0.9-5.9-2.7-7.7c-1.8-1.8-4.1-2.7-6.9-2.7c-2.8,0-5,0.9-6.8,2.7c-1.8,1.8-2.7,4.3-2.7,7.7V58
		c0,3.3,0.9,5.9,2.7,7.7C363,67.4,365.2,68.3,368,68.3z"/>
	<path d="M394.8,75.3V40h8.8v4.6h1.3c0.6-1.2,1.6-2.4,3.2-3.5c1.6-1.1,3.9-1.7,7.1-1.7c2.8,0,5.2,0.6,7.2,1.9c2.1,1.3,3.7,3,4.8,5.2
		s1.7,4.8,1.7,7.7v21.1h-9V54.9c0-2.7-0.7-4.7-2-6c-1.3-1.3-3.2-2-5.6-2c-2.8,0-4.9,0.9-6.4,2.7c-1.5,1.8-2.3,4.4-2.3,7.7v17.9
		H394.8z"/>
	<path d="M454.7,76.3c-3.5,0-6.6-0.7-9.3-2.2c-2.7-1.5-4.8-3.6-6.3-6.3c-1.5-2.7-2.2-5.9-2.2-9.6v-0.9c0-3.7,0.7-6.9,2.2-9.6
		c1.5-2.7,3.5-4.8,6.2-6.3c2.7-1.5,5.7-2.2,9.3-2.2c3.5,0,6.5,0.8,9,2.3c2.6,1.5,4.6,3.7,6,6.4c1.4,2.7,2.1,5.9,2.1,9.5v3.1H446
		c0.1,2.4,1,4.4,2.7,5.9c1.7,1.5,3.8,2.3,6.3,2.3c2.5,0,4.4-0.5,5.6-1.6c1.2-1.1,2.1-2.3,2.7-3.6l7.3,3.8c-0.7,1.2-1.6,2.6-2.9,4
		c-1.3,1.4-2.9,2.7-5,3.7C460.6,75.8,457.9,76.3,454.7,76.3z M446.1,53.6h16.5c-0.2-2-1-3.7-2.5-4.9c-1.4-1.2-3.3-1.9-5.7-1.9
		c-2.4,0-4.3,0.6-5.8,1.9C447.3,49.9,446.4,51.5,446.1,53.6z"/>
	<path d="M483.6,89.5v-7.8h19.2c1.3,0,2-0.7,2-2.1v-8.9h-1.3c-0.4,0.8-1,1.6-1.8,2.4c-0.8,0.8-1.9,1.5-3.3,2
		c-1.4,0.5-3.1,0.8-5.3,0.8c-2.8,0-5.2-0.6-7.2-1.9c-2.1-1.3-3.7-3-4.8-5.2c-1.1-2.2-1.7-4.8-1.7-7.7V40h9v20.4c0,2.7,0.7,4.7,2,6
		c1.3,1.3,3.2,2,5.6,2c2.8,0,4.9-0.9,6.4-2.7c1.5-1.8,2.3-4.4,2.3-7.7V40h9v41.6c0,2.4-0.7,4.4-2.1,5.8c-1.4,1.4-3.3,2.2-5.7,2.2
		H483.6z"/>
</g>
</svg>
